<svg xmlns="http://www.w3.org/2000/svg" version="1.1" xmlns:xlink="http://www.w3.org/1999/xlink" xmlns:svgjs="http://svgjs.dev/svgjs" width="1500" height="1653" viewBox="0 0 1500 1653"><g transform="matrix(1,0,0,1,-0.16395478234426264,0)"><svg viewBox="0 0 254 280" data-background-color="#121212" preserveAspectRatio="xMidYMid meet" height="1653" width="1500" xmlns="http://www.w3.org/2000/svg" xmlns:xlink="http://www.w3.org/1999/xlink"><g id="tight-bounds" transform="matrix(1,0,0,1,0.02776300981028612,0)"><svg viewBox="0 0 253.94417663764256 280" height="280" width="253.94417663764256"><g><svg viewBox="0 0 278.2696 306.82132203873687" height="280" width="253.94417663764256"><g><svg viewBox="0 0 278.2696 306.82132203873687" height="306.82132203873687" width="278.2696"><g id="textblocktransform"><svg viewBox="0 0 278.2696 306.82132203873687" height="306.82132203873687" width="278.2696" id="textblock"><g><svg viewBox="0 0 278.2696 278.2696" height="278.2696" width="278.2696"><g transform="matrix(1,0,0,1,89.94321971048298,106.7462815447198)"><svg viewBox="0 0 98.38316057903407 64.77703691056041" height="64.77703691056041" width="98.38316057903407"><g id="icon-0"><svg xmlns="http://www.w3.org/2000/svg" xmlns:xlink="http://www.w3.org/1999/xlink" version="1.1" x="0" y="0" viewBox="5.167 20.304000000000002 89.527 58.946" enable-background="new 0 0 100 100" xml:space="preserve" height="64.77703691056041" width="98.38316057903407" class="icon-xg-0" data-fill-palette-color="accent" id="xg-0"><g fill="#e1410d" data-fill-palette-color="accent"><path fill="#e1410d" d="M91.646 50.793c1.225 0 2.217-0.993 2.217-2.217s-0.993-2.217-2.217-2.217H76.53l-2.335-11.353c-0.225-0.996-0.532-1.953-0.899-2.875h3.937v1.848c0 1.225 0.993 2.217 2.217 2.217s2.217-0.993 2.217-2.217v-7.761c0-1.225-0.993-2.217-2.217-2.217s-2.217 0.993-2.217 2.217v1.478h-5.544c-0.275 0-0.532 0.065-0.775 0.156-3.461-4.651-8.97-7.548-15.11-7.548H53.95c-1.225 0-2.217 0.993-2.217 2.217s0.993 2.217 2.217 2.217h1.855c6.785 0 12.569 4.623 14.055 11.202l2.287 11.122c-0.043 0.045-0.104 0.064-0.144 0.113L62.875 58.37H48.037V42.478h2.956c1.225 0 2.217-0.993 2.217-2.217s-0.993-2.217-2.217-2.217h-3.326v-3.141c0-1.225-0.993-2.217-2.217-2.217H20.801c-0.063-0.362-0.112-0.73-0.112-1.11v-3.14c0-1.225-0.993-2.217-2.217-2.217s-2.217 0.993-2.217 2.217v3.14c0 3.641 1.81 6.85 4.56 8.831C10.701 45.681 8.352 54.884 7.822 58.37H7.384c-1.225 0-2.217 0.993-2.217 2.217s0.993 2.217 2.217 2.217h9.323c-0.465 1.312-0.73 2.692-0.73 4.111 0 6.802 5.533 12.334 12.334 12.334s12.334-5.533 12.334-12.334c0-1.423-0.255-2.803-0.717-4.111h24c0.667 0 1.297-0.3 1.718-0.816l9.128-11.195H91.646zM43.232 38.043H27.157c-1.201 0-2.313-0.351-3.278-0.924h19.353V38.043zM27.515 42.478h16.087V58.37H12.299C12.952 54.796 15.748 45.96 27.515 42.478zM36.21 66.916c0 4.356-3.544 7.9-7.9 7.9s-7.9-3.544-7.9-7.9c0-1.466 0.416-2.873 1.175-4.111h13.443C35.789 64.042 36.21 65.442 36.21 66.916z" data-fill-palette-color="accent"></path><path fill="#e1410d" d="M82.36 54.581c-6.802 0-12.334 5.533-12.334 12.334S75.559 79.25 82.36 79.25c6.802 0 12.334-5.533 12.334-12.334S89.162 54.581 82.36 54.581zM82.36 74.815c-4.356 0-7.9-3.544-7.9-7.9s3.544-7.9 7.9-7.9c4.356 0 7.9 3.544 7.9 7.9S86.716 74.815 82.36 74.815z" data-fill-palette-color="accent"></path></g></svg></g></svg></g><g id="text-0"><path d="M26.952 104.445v0c-0.107 0.321-0.281 0.578-0.523 0.768-0.235 0.193-0.514 0.236-0.835 0.13v0l-24.995-8.293c-0.244-0.081-0.416-0.241-0.515-0.481-0.101-0.233-0.111-0.515-0.03-0.845v0l2.239-6.75c0.471-1.421 1.155-2.621 2.052-3.601 0.896-0.98 2.023-1.613 3.38-1.897 1.358-0.285 2.978-0.115 4.862 0.51v0l0.366 0.122c1.909 0.633 3.321 1.476 4.235 2.529 0.914 1.053 1.435 2.246 1.563 3.58 0.13 1.328-0.04 2.702-0.511 4.123v0l-1.753 5.284 9.913 3.289c0.321 0.107 0.517 0.314 0.586 0.622 0.075 0.31 0.064 0.614-0.034 0.91zM2.765 95.072l11.629 3.858 1.754-5.285c0.544-1.639 0.509-3.071-0.106-4.295-0.61-1.216-1.87-2.14-3.779-2.774v0l-0.444-0.147c-1.909-0.633-3.469-0.644-4.678-0.032-1.205 0.621-2.079 1.751-2.623 3.39v0z" fill="#e1410d" data-fill-palette-color="primary"></path><path d="M40.689 74.888v0c-0.688 1.12-1.614 1.973-2.779 2.562-1.164 0.588-2.405 0.879-3.721 0.873-1.31-0.002-2.517-0.342-3.618-1.019v0l-3.593-2.208c-1.096-0.674-1.937-1.584-2.52-2.729-0.578-1.142-0.862-2.362-0.851-3.66 0.01-1.297 0.367-2.518 1.068-3.66v0c0.688-1.12 1.606-1.986 2.755-2.6 1.145-0.608 2.355-0.914 3.629-0.918 1.269-0.007 2.474 0.34 3.617 1.042v0l3.592 2.208c1.079 0.663 1.925 1.577 2.538 2.74 0.618 1.167 0.926 2.406 0.924 3.716-0.006 1.316-0.353 2.534-1.041 3.653zM38.707 73.67v0c0.472-0.767 0.695-1.584 0.67-2.45-0.034-0.863-0.264-1.685-0.691-2.464-0.427-0.779-1.005-1.392-1.732-1.839v0l-3.592-2.208c-0.698-0.429-1.479-0.659-2.344-0.689-0.858-0.027-1.685 0.149-2.481 0.526-0.787 0.375-1.416 0.946-1.888 1.714v0c-0.472 0.767-0.695 1.584-0.671 2.45 0.03 0.869 0.249 1.684 0.657 2.443 0.41 0.769 0.964 1.368 1.663 1.797v0l3.592 2.207c0.727 0.447 1.535 0.685 2.423 0.714 0.885 0.035 1.725-0.136 2.522-0.513 0.787-0.375 1.411-0.938 1.872-1.688z" fill="#e1410d" data-fill-palette-color="primary"></path><path d="M53.769 57.194v0c-0.221 0.247-0.491 0.397-0.81 0.448-0.319 0.042-0.575-0.023-0.766-0.194v0l-20.552-18.383c-0.212-0.19-0.3-0.432-0.264-0.727 0.041-0.3 0.172-0.573 0.393-0.82v0c0.239-0.268 0.506-0.438 0.799-0.512 0.289-0.069 0.539-0.008 0.751 0.181v0l20.553 18.383c0.192 0.172 0.285 0.418 0.279 0.74-0.016 0.322-0.143 0.617-0.383 0.884z" fill="#e1410d" data-fill-palette-color="primary"></path><path d="M69.872 54.415v0c-0.265 0.199-0.538 0.298-0.818 0.297-0.271 0-0.53-0.165-0.779-0.496v0c-0.187-0.249-0.304-0.5-0.35-0.753-0.046-0.253 0.044-0.465 0.272-0.636v0c0.498-0.374 0.854-0.887 1.068-1.539 0.223-0.65 0.318-1.404 0.286-2.26-0.032-0.866-0.159-1.769-0.383-2.71-0.228-0.947-0.551-1.89-0.969-2.83v0l-14.767-9.178c-0.142-0.054-0.244-0.122-0.305-0.203v0c-0.142-0.19-0.199-0.406-0.169-0.648 0.026-0.248 0.105-0.486 0.24-0.714 0.134-0.228 0.285-0.405 0.453-0.53v0c0.163-0.122 0.338-0.199 0.526-0.23 0.188-0.031 0.356 0.012 0.504 0.13v0l12.787 8.199-4.556-14.378c-0.05-0.191-0.039-0.368 0.032-0.533 0.072-0.164 0.178-0.299 0.319-0.404v0c0.168-0.126 0.38-0.222 0.636-0.287 0.256-0.065 0.507-0.075 0.751-0.031 0.241 0.039 0.439 0.162 0.594 0.368v0c0.077 0.103 0.119 0.203 0.124 0.3v0l4.96 16.591c0.309 1.055 0.628 2.167 0.954 3.336 0.337 1.17 0.563 2.318 0.679 3.442 0.112 1.119 0.024 2.176-0.263 3.17-0.285 0.985-0.894 1.827-1.826 2.527z" fill="#e1410d" data-fill-palette-color="primary"></path><path d="M89.311 31.632v0c-0.305 0.147-0.61 0.2-0.916 0.159-0.302-0.035-0.527-0.205-0.673-0.51v0l-10.783-22.413-5.85 2.814c-0.281 0.135-0.55 0.129-0.809-0.017-0.258-0.146-0.455-0.36-0.59-0.64v0c-0.132-0.275-0.176-0.562-0.132-0.861 0.047-0.293 0.211-0.507 0.491-0.642v0l13.972-6.722c0.305-0.147 0.576-0.146 0.813 0.004 0.24 0.14 0.428 0.35 0.563 0.631v0c0.132 0.275 0.184 0.562 0.155 0.861-0.023 0.297-0.187 0.518-0.492 0.665v0l-5.823 2.801 10.783 22.413c0.147 0.305 0.133 0.59-0.041 0.854-0.171 0.27-0.393 0.471-0.668 0.603z" fill="#e1410d" data-fill-palette-color="primary"></path><path d="M106.329 24.89v0c-0.326 0.092-0.634 0.074-0.924-0.055-0.292-0.135-0.473-0.327-0.543-0.574v0l-4.465-15.737c-0.078-0.274-0.022-0.525 0.166-0.754 0.188-0.229 0.445-0.39 0.771-0.483v0c0.319-0.091 0.616-0.087 0.891 0.011 0.268 0.1 0.44 0.287 0.518 0.561v0l0.516 1.818c0.133-0.573 0.371-1.147 0.715-1.724 0.342-0.583 0.794-1.109 1.358-1.578 0.566-0.463 1.259-0.811 2.08-1.045v0l1.3-0.368c0.274-0.078 0.535-0.039 0.782 0.115 0.242 0.157 0.409 0.398 0.501 0.724v0c0.083 0.293 0.066 0.58-0.051 0.86-0.126 0.275-0.326 0.452-0.6 0.529v0l-1.3 0.369c-0.821 0.233-1.548 0.675-2.18 1.326-0.634 0.645-1.071 1.437-1.31 2.378-0.246 0.943-0.208 1.985 0.115 3.125v0l2.607 9.188c0.07 0.248 0.017 0.506-0.161 0.774-0.179 0.262-0.441 0.442-0.786 0.54z" fill="#e1410d" data-fill-palette-color="primary"></path><path d="M129.521 20.856v0c-1.438 0.122-2.708-0.191-3.812-0.94-1.097-0.75-1.719-1.985-1.865-3.706v0c-0.12-1.411 0.166-2.529 0.856-3.356 0.698-0.821 1.706-1.437 3.025-1.848 1.325-0.405 2.875-0.683 4.65-0.834v0l1.964-0.167-0.08-0.932c-0.07-0.823-0.288-1.624-0.653-2.402-0.359-0.785-0.892-1.413-1.597-1.883-0.699-0.471-1.613-0.658-2.74-0.562v0c-0.85 0.072-1.538 0.219-2.063 0.441-0.524 0.228-0.93 0.45-1.218 0.664-0.294 0.222-0.542 0.342-0.745 0.359v0c-0.31 0.026-0.57-0.108-0.778-0.403-0.201-0.289-0.314-0.575-0.338-0.858v0c-0.029-0.337 0.208-0.677 0.708-1.019 0.502-0.335 1.149-0.635 1.943-0.899 0.794-0.258 1.589-0.421 2.385-0.489v0c1.721-0.146 3.117 0.088 4.189 0.705 1.073 0.623 1.883 1.478 2.431 2.566 0.549 1.095 0.877 2.284 0.987 3.567v0l0.852 10.022c0.024 0.283-0.067 0.529-0.273 0.737-0.199 0.214-0.491 0.337-0.876 0.37v0c-0.31 0.026-0.589-0.048-0.835-0.225-0.246-0.169-0.38-0.396-0.405-0.679v0l-0.143-1.691c-0.605 0.799-1.357 1.546-2.257 2.242-0.899 0.702-2.003 1.108-3.312 1.22zM129.958 18.677v0c0.844-0.072 1.632-0.356 2.364-0.853 0.739-0.505 1.331-1.092 1.777-1.763 0.445-0.677 0.644-1.295 0.597-1.855v0l-0.21-2.47-1.62 0.137c-1.154 0.098-2.245 0.262-3.272 0.493-1.027 0.23-1.849 0.603-2.464 1.117-0.622 0.522-0.89 1.282-0.805 2.281v0c0.094 1.107 0.494 1.889 1.198 2.345 0.698 0.457 1.51 0.647 2.435 0.568z" fill="#e1410d" data-fill-palette-color="primary"></path><path d="M152.161 20.76v0c-0.336-0.046-0.61-0.186-0.825-0.421-0.213-0.241-0.302-0.489-0.267-0.744v0l2.216-16.206c0.039-0.282 0.19-0.49 0.455-0.625 0.265-0.135 0.565-0.179 0.9-0.133v0c0.329 0.045 0.599 0.167 0.811 0.367 0.205 0.199 0.289 0.439 0.25 0.721v0l-0.241 1.762c0.51-0.682 1.24-1.266 2.188-1.752 0.954-0.478 2.069-0.63 3.344-0.455v0c1.228 0.168 2.314 0.648 3.259 1.44 0.944 0.792 1.649 1.767 2.112 2.924 0.471 1.151 0.616 2.392 0.435 3.721v0l-1.395 10.197c-0.046 0.336-0.207 0.566-0.484 0.692-0.278 0.133-0.585 0.176-0.92 0.131v0c-0.282-0.039-0.546-0.16-0.791-0.365-0.246-0.198-0.347-0.464-0.301-0.8v0l1.394-10.197c0.111-0.812 0.003-1.62-0.324-2.423-0.335-0.798-0.829-1.484-1.483-2.059-0.647-0.567-1.407-0.91-2.279-1.03v0c-0.765-0.105-1.527-0.007-2.286 0.293-0.752 0.3-1.402 0.779-1.949 1.435-0.547 0.65-0.89 1.485-1.03 2.505v0l-1.395 10.197c-0.035 0.255-0.187 0.47-0.457 0.645-0.269 0.168-0.582 0.228-0.937 0.18z" fill="#e1410d" data-fill-palette-color="primary"></path><path d="M182.475 28.413v0c-1.134-0.429-2.067-0.949-2.799-1.559-0.732-0.61-1.263-1.206-1.594-1.788-0.339-0.577-0.44-1.047-0.303-1.408v0c0.065-0.171 0.165-0.321 0.301-0.451 0.13-0.132 0.284-0.233 0.462-0.303 0.179-0.07 0.341-0.077 0.486-0.022v0c0.266 0.101 0.508 0.352 0.726 0.753 0.224 0.403 0.575 0.862 1.054 1.376 0.481 0.508 1.263 0.967 2.347 1.378v0c1.375 0.52 2.439 0.626 3.193 0.317 0.752-0.302 1.256-0.792 1.512-1.469v0c0.302-0.798 0.325-1.499 0.068-2.104-0.257-0.604-0.679-1.162-1.267-1.674-0.595-0.515-1.232-1.021-1.913-1.518-0.677-0.488-1.299-1.027-1.865-1.618-0.562-0.582-0.946-1.242-1.152-1.979-0.204-0.743-0.119-1.609 0.256-2.597v0c0.293-0.773 0.775-1.463 1.446-2.071 0.674-0.614 1.52-1.011 2.537-1.191 1.023-0.178 2.222-0.006 3.596 0.515v0c0.792 0.3 1.53 0.673 2.216 1.121 0.683 0.454 1.209 0.91 1.578 1.369 0.366 0.45 0.493 0.82 0.383 1.111v0c-0.046 0.12-0.147 0.263-0.303 0.429-0.161 0.156-0.344 0.286-0.549 0.389-0.199 0.106-0.397 0.121-0.594 0.047v0c-0.19-0.072-0.415-0.262-0.675-0.57-0.254-0.306-0.605-0.631-1.054-0.975-0.447-0.35-1.019-0.657-1.715-0.921v0c-0.868-0.329-1.627-0.438-2.276-0.329-0.652 0.115-1.179 0.34-1.58 0.673-0.399 0.327-0.676 0.696-0.833 1.108v0c-0.264 0.697-0.249 1.307 0.046 1.831 0.3 0.527 0.748 1.036 1.343 1.53 0.604 0.489 1.248 0.979 1.932 1.47 0.681 0.497 1.295 1.055 1.843 1.675 0.554 0.622 0.916 1.339 1.087 2.15 0.18 0.807 0.064 1.755-0.349 2.844v0c-0.537 1.419-1.472 2.358-2.804 2.817-1.335 0.465-2.93 0.346-4.787-0.356z" fill="#e1410d" data-fill-palette-color="primary"></path><path d="M195.586 44.501v0c-0.285-0.183-0.475-0.427-0.57-0.73-0.091-0.309-0.067-0.571 0.072-0.787v0l13.717-21.293c0.154-0.239 0.379-0.364 0.676-0.375 0.297-0.01 0.587 0.076 0.872 0.26v0c0.279 0.18 0.469 0.403 0.571 0.67 0.108 0.271 0.084 0.526-0.069 0.765v0l-0.963 1.495c0.768-0.392 1.687-0.605 2.757-0.641 1.061-0.034 2.124 0.293 3.189 0.978v0c1.082 0.697 1.883 1.604 2.404 2.722 0.521 1.117 0.756 2.304 0.705 3.559-0.054 1.246-0.444 2.433-1.17 3.561v0l-2.284 3.545c-0.686 1.065-1.6 1.902-2.742 2.512-1.151 0.612-2.345 0.927-3.581 0.944-1.236 0.018-2.375-0.309-3.417-0.981v0c-0.996-0.642-1.723-1.465-2.181-2.468-0.461-0.998-0.66-1.952-0.597-2.862v0l-5.777 8.968c-0.139 0.216-0.368 0.347-0.687 0.391-0.315 0.039-0.623-0.039-0.925-0.233zM206.62 38.496v0c0.717 0.462 1.509 0.69 2.375 0.684 0.864-0.015 1.696-0.225 2.496-0.628 0.8-0.403 1.431-0.964 1.893-1.681v0l2.283-3.545c0.444-0.689 0.684-1.469 0.721-2.339 0.033-0.865-0.127-1.697-0.481-2.498-0.364-0.798-0.925-1.442-1.682-1.929v0c-0.649-0.418-1.381-0.652-2.195-0.701-0.814-0.049-1.611 0.106-2.391 0.466-0.782 0.35-1.451 0.958-2.009 1.824v0l-2.933 4.552c-0.209 0.325-0.305 0.855-0.288 1.591 0.021 0.731 0.206 1.494 0.555 2.291 0.347 0.787 0.899 1.425 1.656 1.913z" fill="#e1410d" data-fill-palette-color="primary"></path><path d="M225.458 57.6v0c-0.912-0.946-1.506-2.057-1.784-3.331-0.278-1.275-0.249-2.548 0.086-3.821 0.33-1.268 0.961-2.351 1.893-3.249v0l3.037-2.925c0.927-0.893 2.018-1.478 3.274-1.756 1.251-0.274 2.503-0.243 3.756 0.092 1.254 0.335 2.346 0.985 3.276 1.951v0c0.912 0.946 1.521 2.052 1.827 3.318 0.302 1.261 0.295 2.508-0.02 3.743-0.31 1.23-0.949 2.31-1.914 3.241v0l-3.037 2.925c-0.912 0.879-2.008 1.469-3.288 1.771-1.285 0.306-2.561 0.294-3.829-0.036-1.273-0.335-2.365-0.976-3.277-1.923zM227.134 55.986v0c0.625 0.649 1.36 1.07 2.204 1.263 0.844 0.183 1.697 0.166 2.559-0.053 0.862-0.219 1.6-0.624 2.214-1.215v0l3.037-2.926c0.59-0.569 1.008-1.267 1.254-2.096 0.241-0.824 0.278-1.669 0.112-2.534-0.166-0.856-0.561-1.608-1.187-2.257v0c-0.625-0.649-1.36-1.07-2.203-1.263-0.849-0.188-1.692-0.18-2.53 0.025-0.847 0.204-1.566 0.591-2.156 1.159v0l-3.037 2.925c-0.615 0.592-1.047 1.314-1.298 2.167-0.255 0.848-0.3 1.704-0.134 2.57 0.166 0.856 0.554 1.601 1.165 2.235z" fill="#e1410d" data-fill-palette-color="primary"></path><path d="M238.881 74.234v0c-0.179-0.287-0.248-0.588-0.205-0.902 0.049-0.318 0.182-0.545 0.401-0.682v0l13.871-8.67c0.241-0.151 0.498-0.168 0.771-0.051 0.273 0.117 0.499 0.319 0.679 0.607v0c0.176 0.281 0.255 0.568 0.237 0.858-0.022 0.285-0.153 0.503-0.395 0.654v0l-1.602 1.001c0.587-0.032 1.205 0.037 1.854 0.207 0.655 0.166 1.286 0.454 1.895 0.865 0.602 0.414 1.13 0.983 1.582 1.707v0l0.716 1.146c0.151 0.241 0.186 0.503 0.107 0.784-0.083 0.276-0.269 0.503-0.556 0.682v0c-0.258 0.162-0.538 0.225-0.84 0.19-0.299-0.045-0.524-0.187-0.675-0.429v0l-0.716-1.145c-0.452-0.724-1.079-1.298-1.881-1.725-0.796-0.429-1.679-0.628-2.649-0.596-0.974 0.026-1.964 0.353-2.969 0.981v0l-8.099 5.062c-0.218 0.136-0.481 0.157-0.788 0.061-0.302-0.099-0.547-0.301-0.738-0.605z" fill="#e1410d" data-fill-palette-color="primary"></path><path d="M251.093 99.019l-0.4-1c-0.737-1.843-0.885-3.425-0.444-4.747 0.444-1.316 1.59-2.343 3.438-3.083v0l18.922-7.572c0.264-0.106 0.522-0.063 0.774 0.128 0.258 0.189 0.44 0.415 0.545 0.679v0c0.126 0.314 0.158 0.623 0.097 0.924-0.055 0.299-0.215 0.502-0.479 0.608v0l-7.216 2.888 1.868 4.669c0.096 0.239 0.075 0.47-0.062 0.692-0.133 0.214-0.332 0.374-0.596 0.48v0c-0.264 0.106-0.521 0.128-0.772 0.068-0.247-0.069-0.418-0.223-0.513-0.462v0l-1.869-4.67-9.762 3.907c-1.176 0.471-1.896 1.051-2.16 1.74-0.264 0.689-0.147 1.657 0.351 2.902v0l0.4 0.999c0.136 0.34 0.135 0.639-0.002 0.898-0.128 0.263-0.337 0.452-0.626 0.568v0c-0.283 0.113-0.571 0.123-0.864 0.029-0.284-0.091-0.494-0.306-0.63-0.645z" fill="#e1410d" data-fill-palette-color="primary"></path><path d="M8.797 178.938v0c-0.11-0.328-0.124-0.648-0.043-0.961 0.081-0.313 0.285-0.524 0.613-0.633v0l26.08-8.733c0.25-0.084 0.491-0.057 0.723 0.08 0.232 0.137 0.415 0.365 0.55 0.683v0l2.361 7.053c0.495 1.477 0.676 2.906 0.546 4.285-0.137 1.382-0.685 2.615-1.644 3.7-0.952 1.083-2.41 1.953-4.375 2.612v0l-0.386 0.129c-1.991 0.667-3.698 0.849-5.12 0.546-1.423-0.302-2.604-0.971-3.543-2.006-0.946-1.033-1.666-2.289-2.161-3.766v0l-1.849-5.52-10.337 3.461c-0.328 0.11-0.619 0.061-0.874-0.147-0.257-0.214-0.438-0.475-0.541-0.783zM34.875 171.61l-12.139 4.064 1.849 5.521c0.572 1.708 1.497 2.881 2.774 3.517 1.277 0.637 2.912 0.622 4.903-0.045v0l0.462-0.155c1.991-0.667 3.298-1.637 3.922-2.909 0.624-1.273 0.65-2.764 0.078-4.473v0z" fill="#e1410d" data-fill-palette-color="primary"></path><path d="M24.145 213.037v0c-0.724-1.169-1.088-2.433-1.093-3.793 0.001-1.363 0.312-2.655 0.934-3.876 0.622-1.221 1.503-2.185 2.643-2.891v0l3.741-2.316c1.146-0.71 2.389-1.069 3.729-1.078 1.344-0.004 2.616 0.3 3.815 0.912 1.209 0.614 2.182 1.517 2.92 2.709v0c0.724 1.169 1.099 2.431 1.125 3.785 0.035 1.356-0.243 2.632-0.834 3.827-0.595 1.189-1.488 2.152-2.68 2.889v0l-3.74 2.316c-1.117 0.692-2.363 1.053-3.739 1.084-1.379 0.025-2.682-0.272-3.909-0.89-1.218-0.616-2.189-1.509-2.912-2.678zM26.209 211.759v0c0.496 0.8 1.151 1.39 1.968 1.769 0.825 0.381 1.7 0.553 2.625 0.514 0.928-0.033 1.769-0.283 2.523-0.75v0l3.74-2.315c0.737-0.456 1.319-1.08 1.746-1.87 0.431-0.784 0.656-1.637 0.676-2.557 0.018-0.911-0.222-1.767-0.717-2.567v0c-0.496-0.8-1.151-1.39-1.968-1.77-0.825-0.381-1.689-0.56-2.59-0.535-0.905 0.018-1.726 0.256-2.463 0.712v0l-3.74 2.316c-0.754 0.467-1.353 1.109-1.796 1.924-0.446 0.81-0.68 1.675-0.699 2.596-0.018 0.911 0.214 1.755 0.695 2.533z" fill="#e1410d" data-fill-palette-color="primary"></path><path d="M39.674 232.992v0c-0.231-0.257-0.351-0.554-0.362-0.89-0.011-0.336 0.083-0.593 0.279-0.769v0l21.433-19.228c0.222-0.199 0.482-0.259 0.779-0.181 0.303 0.074 0.57 0.24 0.801 0.497v0c0.253 0.282 0.4 0.578 0.441 0.887 0.041 0.3-0.049 0.549-0.271 0.748v0l-21.432 19.228c-0.197 0.176-0.459 0.244-0.788 0.202-0.333-0.047-0.626-0.211-0.88-0.494z" fill="#e1410d" data-fill-palette-color="primary"></path><path d="M47.205 252.637v0c-0.282-0.211-0.462-0.457-0.541-0.736-0.073-0.275 0.018-0.583 0.274-0.924v0c0.195-0.26 0.412-0.453 0.651-0.579 0.24-0.117 0.479-0.085 0.717 0.093v0c0.515 0.386 1.133 0.595 1.853 0.628 0.715 0.028 1.5-0.098 2.355-0.38 0.849-0.286 1.715-0.678 2.597-1.177 0.882-0.499 1.733-1.097 2.552-1.794v0l4.896-17.485c0.012-0.152 0.051-0.271 0.116-0.358v0c0.146-0.195 0.344-0.318 0.594-0.368 0.255-0.046 0.517-0.035 0.788 0.033 0.271 0.068 0.493 0.167 0.666 0.296v0c0.168 0.126 0.294 0.28 0.378 0.461 0.084 0.182 0.091 0.364 0.021 0.549v0l-4.496 15.208 13.087-8.765c0.179-0.103 0.362-0.144 0.549-0.122 0.187 0.022 0.356 0.089 0.508 0.203v0c0.168 0.126 0.322 0.31 0.463 0.551 0.141 0.241 0.225 0.49 0.252 0.748 0.022 0.253-0.049 0.488-0.211 0.705v0c-0.077 0.103-0.159 0.173-0.246 0.209v0l-15.18 9.811c-0.971 0.618-1.997 1.263-3.077 1.935-1.074 0.676-2.158 1.235-3.251 1.676-1.088 0.446-2.171 0.671-3.249 0.675-1.074-0.001-2.096-0.366-3.066-1.093z" fill="#e1410d" data-fill-palette-color="primary"></path><path d="M80.961 262.777v0c-0.317-0.153-0.56-0.367-0.727-0.644-0.162-0.273-0.167-0.566-0.018-0.877v0l11.269-23.396-6.114-2.945c-0.293-0.141-0.464-0.363-0.515-0.665-0.041-0.305 0.009-0.605 0.151-0.897v0c0.138-0.287 0.339-0.509 0.603-0.668 0.27-0.155 0.552-0.163 0.845-0.022v0l14.591 7.028c0.311 0.15 0.487 0.37 0.528 0.66 0.041 0.29-0.008 0.579-0.147 0.866v0c-0.141 0.293-0.344 0.526-0.607 0.699-0.261 0.167-0.547 0.176-0.859 0.027v0l-6.078-2.928-11.268 23.397c-0.15 0.311-0.391 0.484-0.724 0.519-0.333 0.035-0.642-0.016-0.93-0.154z" fill="#e1410d" data-fill-palette-color="primary"></path><path d="M100.702 270.606v0c-0.339-0.097-0.602-0.285-0.789-0.564-0.188-0.279-0.245-0.546-0.173-0.8v0l4.703-16.419c0.082-0.287 0.271-0.479 0.567-0.577 0.296-0.098 0.613-0.099 0.952-0.002v0c0.332 0.095 0.591 0.261 0.777 0.497 0.186 0.236 0.238 0.498 0.155 0.784v0l-0.542 1.895c0.427-0.434 0.956-0.815 1.584-1.142 0.621-0.322 1.313-0.536 2.076-0.642 0.756-0.107 1.561-0.039 2.414 0.206v0l1.358 0.388c0.287 0.082 0.496 0.262 0.628 0.54 0.132 0.277 0.149 0.585 0.052 0.923v0c-0.088 0.306-0.263 0.548-0.525 0.727-0.262 0.178-0.537 0.227-0.824 0.145v0l-1.357-0.389c-0.853-0.244-1.738-0.255-2.655-0.031-0.918 0.23-1.745 0.694-2.481 1.393-0.729 0.7-1.264 1.646-1.605 2.837v0l-2.747 9.592c-0.073 0.254-0.263 0.45-0.57 0.587-0.307 0.138-0.64 0.155-0.998 0.052z" fill="#e1410d" data-fill-palette-color="primary"></path><path d="M127.325 275.917v0c-1.505-0.134-2.754-0.683-3.75-1.648-0.995-0.966-1.413-2.349-1.253-4.151v0c0.131-1.471 0.626-2.569 1.486-3.295 0.866-0.719 2.014-1.167 3.445-1.347 1.438-0.185 3.081-0.196 4.929-0.031v0l2.055 0.183 0.086-0.972c0.076-0.857-0.004-1.721-0.239-2.591-0.235-0.871-0.669-1.613-1.302-2.227-0.633-0.607-1.54-0.963-2.72-1.068v0c-0.884-0.079-1.617-0.048-2.201 0.09-0.577 0.139-1.036 0.292-1.377 0.459-0.342 0.174-0.617 0.251-0.826 0.232v0c-0.324-0.029-0.566-0.21-0.727-0.544-0.16-0.341-0.227-0.659-0.201-0.956v0c0.031-0.351 0.337-0.653 0.917-0.908 0.574-0.262 1.292-0.456 2.153-0.584 0.868-0.127 1.717-0.153 2.547-0.079v0c1.795 0.159 3.189 0.657 4.182 1.493 0.994 0.829 1.675 1.856 2.042 3.078 0.361 1.222 0.482 2.501 0.363 3.837v0l-0.93 10.464c-0.026 0.29-0.162 0.526-0.409 0.708-0.241 0.183-0.563 0.256-0.969 0.22v0c-0.324-0.029-0.595-0.155-0.813-0.378-0.225-0.224-0.324-0.481-0.298-0.771v0l0.157-1.771c-0.771 0.714-1.68 1.347-2.729 1.9-1.049 0.56-2.255 0.779-3.618 0.657zM128.159 273.758v0c0.884 0.079 1.751-0.072 2.601-0.453 0.844-0.387 1.554-0.885 2.132-1.493 0.585-0.614 0.904-1.215 0.955-1.802v0l0.229-2.571-1.69-0.15c-1.208-0.107-2.361-0.138-3.46-0.093-1.099 0.052-2.011 0.291-2.736 0.716-0.724 0.418-1.132 1.151-1.225 2.196v0c-0.102 1.154 0.163 2.031 0.796 2.631 0.634 0.594 1.433 0.933 2.398 1.019z" fill="#e1410d" data-fill-palette-color="primary"></path><path d="M154.112 275.467v0c-0.349 0.046-0.666-0.021-0.95-0.202-0.284-0.181-0.443-0.402-0.478-0.664v0l-2.252-16.93c-0.039-0.295 0.057-0.547 0.288-0.756 0.232-0.209 0.522-0.336 0.872-0.382v0c0.342-0.046 0.646 0.003 0.911 0.145 0.265 0.142 0.417 0.361 0.456 0.657v0l0.244 1.833c0.32-0.828 0.892-1.615 1.716-2.36 0.829-0.753 1.908-1.217 3.237-1.395v0c1.282-0.171 2.51 0.015 3.682 0.556 1.171 0.534 2.15 1.32 2.938 2.356 0.794 1.035 1.283 2.248 1.468 3.638v0l1.416 10.645c0.046 0.342-0.054 0.619-0.299 0.829-0.245 0.21-0.539 0.338-0.882 0.384v0c-0.295 0.039-0.596-0.01-0.901-0.147-0.305-0.137-0.481-0.377-0.526-0.719v0l-1.417-10.645c-0.114-0.859-0.448-1.645-1-2.358-0.559-0.711-1.245-1.266-2.056-1.663-0.81-0.391-1.669-0.526-2.576-0.406v0c-0.806 0.107-1.547 0.414-2.224 0.922-0.676 0.514-1.2 1.174-1.571 1.982-0.363 0.814-0.474 1.754-0.332 2.822v0l1.417 10.645c0.035 0.262-0.061 0.517-0.288 0.766-0.227 0.249-0.524 0.398-0.893 0.447z" fill="#e1410d" data-fill-palette-color="primary"></path><path d="M189.091 267.348v0c-1.186 0.444-2.277 0.68-3.272 0.705-0.996 0.026-1.821-0.073-2.477-0.298-0.664-0.229-1.067-0.53-1.207-0.904v0c-0.067-0.178-0.093-0.363-0.078-0.556 0.014-0.193 0.067-0.38 0.159-0.559 0.092-0.179 0.214-0.297 0.367-0.354v0c0.273-0.102 0.635-0.072 1.087 0.092 0.452 0.163 1.042 0.282 1.771 0.356 0.727 0.068 1.658-0.111 2.794-0.537v0c1.44-0.539 2.347-1.187 2.722-1.942 0.373-0.762 0.427-1.495 0.164-2.199v0c-0.311-0.831-0.774-1.399-1.388-1.705-0.617-0.297-1.334-0.444-2.151-0.441-0.817 0.002-1.66 0.047-2.531 0.135-0.88 0.084-1.742 0.089-2.588 0.014-0.843-0.068-1.6-0.323-2.272-0.765-0.663-0.439-1.189-1.175-1.576-2.209v0c-0.302-0.806-0.401-1.68-0.299-2.622 0.106-0.951 0.498-1.847 1.174-2.686 0.674-0.846 1.731-1.538 3.171-2.077v0c0.831-0.311 1.67-0.524 2.516-0.639 0.847-0.115 1.572-0.119 2.176-0.013 0.595 0.102 0.95 0.306 1.065 0.61v0c0.048 0.127 0.065 0.308 0.052 0.545-0.013 0.236-0.062 0.461-0.149 0.674-0.09 0.222-0.237 0.371-0.44 0.447v0c-0.203 0.076-0.508 0.082-0.916 0.018-0.411-0.056-0.914-0.066-1.509-0.031-0.588 0.032-1.247 0.185-1.976 0.458v0c-0.907 0.34-1.578 0.779-2.013 1.318-0.431 0.53-0.69 1.065-0.777 1.604-0.09 0.533-0.054 1.015 0.108 1.446v0c0.273 0.729 0.71 1.199 1.309 1.408 0.591 0.205 1.293 0.293 2.106 0.264 0.807-0.028 1.647-0.082 2.521-0.164 0.874-0.081 1.742-0.07 2.605 0.033 0.859 0.112 1.635 0.425 2.327 0.94 0.698 0.512 1.26 1.336 1.686 2.472v0c0.558 1.491 0.473 2.875-0.256 4.153-0.729 1.279-2.064 2.281-4.004 3.009z" fill="#e1410d" data-fill-palette-color="primary"></path><path d="M215.312 264.555v0c-0.297 0.19-0.612 0.262-0.945 0.218-0.334-0.044-0.572-0.177-0.714-0.4v0l-14.24-22.285c-0.16-0.251-0.18-0.52-0.057-0.808 0.122-0.287 0.332-0.525 0.628-0.715v0c0.291-0.186 0.587-0.27 0.887-0.253 0.3 0.017 0.531 0.151 0.691 0.402v0l0.996 1.559c-0.037-0.901 0.16-1.863 0.591-2.886 0.433-1.033 1.204-1.903 2.311-2.61v0c1.136-0.726 2.349-1.091 3.64-1.096 1.287-0.011 2.512 0.284 3.675 0.883 1.168 0.596 2.13 1.484 2.885 2.666v0l2.369 3.707c0.708 1.107 1.101 2.339 1.18 3.695 0.085 1.353-0.134 2.621-0.655 3.806-0.525 1.179-1.332 2.117-2.422 2.814v0c-1.044 0.667-2.143 0.999-3.294 0.996-1.148 0.002-2.138-0.226-2.969-0.684v0l6.001 9.392c0.142 0.223 0.163 0.495 0.063 0.816-0.1 0.321-0.307 0.582-0.621 0.783zM214.414 251.468v0c0.753-0.481 1.314-1.133 1.681-1.954 0.364-0.827 0.528-1.708 0.494-2.643-0.04-0.931-0.299-1.77-0.777-2.517v0l-2.369-3.708c-0.467-0.731-1.101-1.302-1.903-1.713-0.808-0.408-1.669-0.618-2.584-0.628-0.911-0.005-1.763 0.247-2.556 0.753v0c-0.685 0.438-1.227 1.029-1.627 1.775-0.396 0.751-0.597 1.575-0.603 2.471 0.003 0.898 0.295 1.801 0.874 2.709v0l3.042 4.76c0.219 0.342 0.678 0.664 1.376 0.965 0.704 0.297 1.508 0.455 2.412 0.473 0.9 0.012 1.746-0.236 2.54-0.743z" fill="#e1410d" data-fill-palette-color="primary"></path><path d="M239.436 233.502v0c-0.957 0.987-2.094 1.649-3.411 1.986-1.322 0.332-2.651 0.345-3.987 0.04-1.336-0.305-2.486-0.924-3.449-1.857v0l-3.159-3.062c-0.968-0.938-1.62-2.056-1.956-3.354-0.332-1.303-0.347-2.61-0.046-3.922 0.3-1.322 0.939-2.486 1.914-3.493v0c0.957-0.987 2.089-1.659 3.396-2.015 1.307-0.365 2.611-0.407 3.914-0.125 1.298 0.286 2.45 0.918 3.457 1.893v0l3.158 3.062c0.943 0.915 1.598 2.035 1.964 3.361 0.361 1.331 0.391 2.667 0.091 4.008-0.3 1.331-0.929 2.491-1.886 3.478zM237.692 231.812v0c0.655-0.676 1.067-1.456 1.236-2.34 0.168-0.894 0.121-1.784-0.142-2.671-0.258-0.892-0.706-1.646-1.343-2.264v0l-3.159-3.062c-0.623-0.603-1.369-1.016-2.239-1.237-0.866-0.226-1.747-0.236-2.645-0.03-0.888 0.205-1.659 0.646-2.315 1.322v0c-0.655 0.676-1.067 1.456-1.235 2.34-0.168 0.894-0.13 1.774 0.113 2.642 0.239 0.873 0.669 1.611 1.292 2.215v0l3.159 3.062c0.637 0.618 1.405 1.042 2.304 1.271 0.895 0.235 1.791 0.25 2.688 0.045 0.888-0.205 1.65-0.636 2.286-1.293z" fill="#e1410d" data-fill-palette-color="primary"></path><path d="M254.863 213.549v0c-0.188 0.298-0.442 0.498-0.762 0.6-0.321 0.102-0.593 0.083-0.816-0.058v0l-14.45-9.104c-0.252-0.159-0.384-0.394-0.396-0.706-0.012-0.312 0.076-0.616 0.264-0.914v0c0.184-0.292 0.416-0.495 0.695-0.607 0.279-0.112 0.545-0.089 0.796 0.069v0l1.668 1.051c-0.297-0.532-0.515-1.145-0.654-1.841-0.136-0.686-0.148-1.41-0.036-2.172 0.108-0.756 0.399-1.51 0.872-2.261v0l0.753-1.194c0.159-0.252 0.39-0.403 0.693-0.452 0.303-0.049 0.604 0.02 0.902 0.208v0c0.269 0.17 0.453 0.406 0.551 0.707 0.098 0.302 0.068 0.579-0.092 0.831v0l-0.752 1.195c-0.473 0.751-0.73 1.597-0.772 2.54-0.036 0.946 0.179 1.87 0.643 2.771 0.468 0.896 1.227 1.674 2.276 2.334v0l8.441 5.319c0.224 0.141 0.358 0.378 0.405 0.711 0.046 0.333-0.03 0.658-0.229 0.973z" fill="#e1410d" data-fill-palette-color="primary"></path><path d="M268.761 185.732l-0.429 1.054c-0.78 1.92-1.815 3.214-3.102 3.882-1.288 0.668-2.892 0.612-4.812-0.168v0l-19.709-8.011c-0.276-0.112-0.442-0.333-0.498-0.663-0.056-0.33-0.028-0.633 0.084-0.909v0c0.13-0.32 0.328-0.572 0.593-0.757 0.265-0.185 0.536-0.221 0.812-0.109v0l7.51 3.053 1.975-4.856c0.102-0.251 0.284-0.411 0.546-0.48 0.262-0.069 0.531-0.047 0.807 0.064v0c0.27 0.11 0.475 0.281 0.614 0.513 0.14 0.232 0.158 0.474 0.056 0.725v0l-1.974 4.857 10.175 4.135c1.224 0.497 2.183 0.584 2.877 0.26 0.704-0.328 1.318-1.139 1.844-2.431v0l0.428-1.055c0.14-0.345 0.352-0.57 0.636-0.673 0.29-0.102 0.585-0.091 0.887 0.031v0c0.295 0.12 0.517 0.32 0.666 0.6 0.149 0.28 0.154 0.593 0.014 0.938z" fill="#e1410d" data-fill-palette-color="primary"></path><path d="M1.267 138.569c0-6.227 5.048-11.275 11.275-11.274 6.227 0 11.275 5.048 11.274 11.274 0 6.227-5.048 11.275-11.274 11.275-6.227 0-11.275-5.048-11.275-11.275z" fill="#e1410d" data-fill-palette-color="primary"></path><path d="M255.72 138.569c0-6.227 5.048-11.275 11.275-11.274 6.227 0 11.275 5.048 11.275 11.274 0 6.227-5.048 11.275-11.275 11.275-6.227 0-11.275-5.048-11.275-11.275z" fill="#e1410d" data-fill-palette-color="primary"></path></g><g id="text-1"></g></svg></g><g transform="matrix(1,0,0,1,53.149493600000014,297.00736)"><svg viewBox="0 0 171.9706128 9.813962038736841" height="9.813962038736841" width="171.9706128"><g transform="matrix(1,0,0,1,0,0)"><svg width="171.9706128" viewBox="2.5 -37.15 666.77 37.949999999999996" height="9.813962038736841" data-palette-color="#e1410d"><path d="M5.4-22.7L3-22.7 2.5-34.1 5.9-34.1 5.4-22.7ZM11.4-22.7L9-22.7 8.5-34.1 11.9-34.1 11.4-22.7ZM37.6 0L18.35 0 18.35-34.1 37.45-34.1 37.45-30.95 22.1-30.95 22.1-19.05 34.1-19.05 34.1-16 22.1-16 22.1-3.1 37.6-3.1 37.6 0ZM67.59-24.2Q70.84-24.2 73-21.93 75.15-19.65 75.15-15.65L75.15-15.65 75.15 0 71.75 0 71.75-14.15Q71.75-17.85 70.34-19.48 68.95-21.1 66.7-21.1L66.7-21.1Q63.95-21.1 62.42-18.98 60.9-16.85 60.65-13.2L60.65-13.2 60.65 0 57.25 0 57.25-14.15Q57.25-17.85 55.84-19.48 54.45-21.1 52.2-21.1L52.2-21.1Q49.15-21.1 47.62-18.55 46.09-16 46.09-11.7L46.09-11.7 46.09 0 42.7 0 42.7-23.4 46.09-23.4 46.09-19.75Q47.25-21.9 49.02-23.05 50.8-24.2 53.09-24.2L53.09-24.2Q55.65-24.2 57.55-22.83 59.45-21.45 60.2-18.9L60.2-18.9Q61.3-21.4 63.2-22.8 65.09-24.2 67.59-24.2L67.59-24.2ZM92.89-24.2Q96.24-24.2 98.87-22.6 101.49-21 102.97-18.18 104.44-15.35 104.44-11.75L104.44-11.75Q104.44-8.1 102.94-5.25 101.44-2.4 98.79-0.8 96.14 0.8 92.79 0.8L92.79 0.8Q90.29 0.8 88.19-0.33 86.09-1.45 84.64-3.45L84.64-3.45 84.64 0 81.24 0 81.24-36.3 84.64-36.3 84.64-19.9Q86.09-21.95 88.22-23.08 90.34-24.2 92.89-24.2L92.89-24.2ZM92.89-2.3Q95.24-2.3 97.09-3.5 98.94-4.7 99.99-6.85 101.04-9 101.04-11.75L101.04-11.75Q101.04-14.45 99.99-16.57 98.94-18.7 97.09-19.9 95.24-21.1 92.89-21.1L92.89-21.1Q90.49-21.1 88.62-19.9 86.74-18.7 85.69-16.55 84.64-14.4 84.64-11.7L84.64-11.7Q84.64-9 85.69-6.85 86.74-4.7 88.62-3.5 90.49-2.3 92.89-2.3L92.89-2.3ZM120.74-24.2Q121.94-24.2 123.04-23.85L123.04-23.85 123.04-20.75Q121.99-21.25 120.74-21.25L120.74-21.25Q118.59-21.25 116.74-20.05 114.89-18.85 113.77-16.57 112.64-14.3 112.64-11.2L112.64-11.2 112.64 0 109.24 0 109.24-23.4 112.64-23.4 112.64-18.7Q113.99-21.3 116.06-22.75 118.14-24.2 120.74-24.2L120.74-24.2ZM144.54-23.4L147.94-23.4 147.94 0 144.54 0 144.54-3.45Q143.09-1.45 140.99-0.33 138.89 0.8 136.39 0.8L136.39 0.8Q133.04 0.8 130.39-0.8 127.74-2.4 126.24-5.25 124.74-8.1 124.74-11.75L124.74-11.75Q124.74-15.35 126.21-18.18 127.69-21 130.31-22.6 132.94-24.2 136.29-24.2L136.29-24.2Q138.84-24.2 140.96-23.08 143.09-21.95 144.54-19.9L144.54-19.9 144.54-23.4ZM136.29-2.3Q138.69-2.3 140.56-3.5 142.44-4.7 143.49-6.85 144.54-9 144.54-11.7L144.54-11.7Q144.54-14.4 143.49-16.55 142.44-18.7 140.56-19.9 138.69-21.1 136.29-21.1L136.29-21.1Q133.94-21.1 132.09-19.9 130.24-18.7 129.19-16.57 128.14-14.45 128.14-11.75L128.14-11.75Q128.14-9 129.19-6.85 130.24-4.7 132.09-3.5 133.94-2.3 136.29-2.3L136.29-2.3ZM164.39 0.8Q160.99 0.8 158.34-0.8 155.69-2.4 154.19-5.25 152.69-8.1 152.69-11.7L152.69-11.7Q152.69-15.3 154.16-18.15 155.64-21 158.28-22.6 160.94-24.2 164.28-24.2L164.28-24.2Q167.14-24.2 169.26-22.98 171.39-21.75 173.14-19.5L173.14-19.5 170.64-17.55Q168.19-21.1 164.28-21.1L164.28-21.1Q161.94-21.1 160.06-19.9 158.19-18.7 157.14-16.55 156.09-14.4 156.09-11.7L156.09-11.7Q156.09-9 157.14-6.85 158.19-4.7 160.06-3.5 161.94-2.3 164.28-2.3L164.28-2.3Q166.69-2.3 168.24-3.13 169.78-3.95 171.04-5.55L171.04-5.55 173.69-3.7Q172.04-1.65 169.61-0.43 167.19 0.8 164.39 0.8L164.39 0.8ZM188.18-24.2Q191.33-24.2 193.88-22.65 196.43-21.1 197.88-18.43 199.33-15.75 199.33-12.45L199.33-12.45Q199.33-11.5 199.28-11L199.28-11 180.03-11Q180.23-7.4 182.38-4.85 184.53-2.3 188.23-2.3L188.23-2.3Q191.23-2.3 193.21-3.43 195.18-4.55 196.38-6.55L196.38-6.55 199.08-4.75Q197.43-2.15 194.73-0.68 192.03 0.8 188.33 0.8L188.33 0.8Q184.93 0.8 182.28-0.8 179.63-2.4 178.13-5.25 176.63-8.1 176.63-11.7L176.63-11.7Q176.63-15.3 178.11-18.15 179.58-21 182.21-22.6 184.83-24.2 188.18-24.2L188.18-24.2ZM180.23-13.8L195.93-13.8Q195.43-17.45 193.48-19.28 191.53-21.1 188.18-21.1L188.18-21.1Q184.93-21.1 182.86-19.03 180.78-16.95 180.23-13.8L180.23-13.8ZM235.43 0L225.08 0 225.08-3.3 228.38-3.3 228.38-30.8 225.08-30.8 225.08-34.1 235.43-34.1 235.43-30.8 232.13-30.8 232.13-3.3 235.43-3.3 235.43 0ZM252.48-24.2Q254.93-24.2 257-23.2 259.07-22.2 260.3-20.25 261.53-18.3 261.53-15.65L261.53-15.65 261.53 0 258.13 0 258.13-14.15Q258.13-21.1 251.93-21.1L251.93-21.1Q248.33-21.1 246.53-18.55 244.73-16 244.73-11.7L244.73-11.7 244.73 0 241.33 0 241.33-23.4 244.73-23.4 244.73-19.5Q245.93-21.75 247.9-22.98 249.88-24.2 252.48-24.2L252.48-24.2ZM276.82-34.05Q275.07-34.05 273.95-32.85 272.82-31.65 272.82-29.75L272.82-29.75 272.82-23.4 278.22-23.4 278.22-20.3 272.82-20.3 272.82 0 269.42 0 269.42-20.3 266.42-20.3 266.42-23.4 269.42-23.4 269.42-29.75Q269.42-33 271.5-35.08 273.57-37.15 276.82-37.15L276.82-37.15 278.22-37.15 278.22-34.05 276.82-34.05ZM287.17 0L283.77 0 283.77-23.4 287.17-23.4 287.17 0ZM285.47-27.95Q284.32-27.95 283.55-28.75 282.77-29.55 282.77-30.7L282.77-30.7Q282.77-31.8 283.55-32.58 284.32-33.35 285.47-33.35L285.47-33.35Q286.57-33.35 287.37-32.58 288.17-31.8 288.17-30.65L288.17-30.65Q288.17-29.55 287.37-28.75 286.57-27.95 285.47-27.95L285.47-27.95ZM306.47-24.2Q308.92-24.2 310.99-23.2 313.07-22.2 314.29-20.25 315.52-18.3 315.52-15.65L315.52-15.65 315.52 0 312.12 0 312.12-14.15Q312.12-21.1 305.92-21.1L305.92-21.1Q302.32-21.1 300.52-18.55 298.72-16 298.72-11.7L298.72-11.7 298.72 0 295.32 0 295.32-23.4 298.72-23.4 298.72-19.5Q299.92-21.75 301.89-22.98 303.87-24.2 306.47-24.2L306.47-24.2ZM327.42 0L324.02 0 324.02-23.4 327.42-23.4 327.42 0ZM325.72-27.95Q324.57-27.95 323.79-28.75 323.02-29.55 323.02-30.7L323.02-30.7Q323.02-31.8 323.79-32.58 324.57-33.35 325.72-33.35L325.72-33.35Q326.82-33.35 327.62-32.58 328.42-31.8 328.42-30.65L328.42-30.65Q328.42-29.55 327.62-28.75 326.82-27.95 325.72-27.95L325.72-27.95ZM340.21 0L336.81 0 336.81-20.3 332.81-20.3 332.81-23.4 336.81-23.4 336.81-31.15 340.21-31.15 340.21-23.4 345.61-23.4 345.61-20.3 340.21-20.3 340.21 0ZM359.41-24.2Q362.56-24.2 365.11-22.65 367.66-21.1 369.11-18.43 370.56-15.75 370.56-12.45L370.56-12.45Q370.56-11.5 370.51-11L370.51-11 351.26-11Q351.46-7.4 353.61-4.85 355.76-2.3 359.46-2.3L359.46-2.3Q362.46-2.3 364.44-3.43 366.41-4.55 367.61-6.55L367.61-6.55 370.31-4.75Q368.66-2.15 365.96-0.68 363.26 0.8 359.56 0.8L359.56 0.8Q356.16 0.8 353.51-0.8 350.86-2.4 349.36-5.25 347.86-8.1 347.86-11.7L347.86-11.7Q347.86-15.3 349.34-18.15 350.81-21 353.44-22.6 356.06-24.2 359.41-24.2L359.41-24.2ZM351.46-13.8L367.16-13.8Q366.66-17.45 364.71-19.28 362.76-21.1 359.41-21.1L359.41-21.1Q356.16-21.1 354.09-19.03 352.01-16.95 351.46-13.8L351.46-13.8ZM397.56 0L397.56-34.1 408.95-34.1Q413.56-34.1 416.31-31.3 419.06-28.5 419.06-23.55L419.06-23.55Q419.06-18.65 416.18-15.85 413.31-13.05 408.56-13.05L408.56-13.05 401.31-13.05 401.31 0 397.56 0ZM401.31-16.15L408.45-16.15Q411.81-16.15 413.56-18.03 415.31-19.9 415.31-23.55L415.31-23.55Q415.31-27.2 413.56-29.1 411.81-31 408.45-31L408.45-31 401.31-31 401.31-16.15ZM432.65 0.8Q429.3 0.8 426.65-0.8 424-2.4 422.5-5.28 421-8.15 421-11.75L421-11.75Q421-15.35 422.48-18.18 423.95-21 426.58-22.6 429.2-24.2 432.55-24.2L432.55-24.2Q435.9-24.2 438.55-22.6 441.2-21 442.7-18.15 444.2-15.3 444.2-11.7L444.2-11.7Q444.2-8.1 442.73-5.25 441.25-2.4 438.63-0.8 436 0.8 432.65 0.8L432.65 0.8ZM432.55-2.3Q434.95-2.3 436.83-3.5 438.7-4.7 439.75-6.85 440.8-9 440.8-11.7L440.8-11.7Q440.8-14.4 439.75-16.55 438.7-18.7 436.83-19.9 434.95-21.1 432.55-21.1L432.55-21.1Q430.2-21.1 428.35-19.9 426.5-18.7 425.45-16.57 424.4-14.45 424.4-11.75L424.4-11.75Q424.4-9 425.45-6.85 426.5-4.7 428.35-3.5 430.2-2.3 432.55-2.3L432.55-2.3ZM457.25 0.8Q453.85 0.8 451.28-0.65 448.7-2.1 447.35-4.75L447.35-4.75 450.4-6.25Q452.25-2.3 457.65-2.3L457.65-2.3Q460.25-2.3 461.95-3.25 463.65-4.2 463.65-6.2L463.65-6.2Q463.65-8.25 462.28-9.25 460.9-10.25 457.45-10.55L457.45-10.55Q452.65-10.95 450.58-12.7 448.5-14.45 448.5-17.35L448.5-17.35Q448.5-20.6 450.85-22.4 453.2-24.2 457.3-24.2L457.3-24.2Q464.25-24.2 466.75-18.7L466.75-18.7 463.7-17.2Q462.85-19.2 461.23-20.15 459.6-21.1 457.05-21.1L457.05-21.1Q454.45-21.1 453.08-20.15 451.7-19.2 451.7-17.45L451.7-17.45Q451.7-15.8 453.18-14.78 454.65-13.75 458.25-13.45L458.25-13.45Q462.7-13.05 464.88-11.28 467.05-9.5 467.05-6.6L467.05-6.6Q467.05-4.25 465.7-2.58 464.35-0.9 462.1-0.05 459.85 0.8 457.25 0.8L457.25 0.8ZM480.45 0.8Q477.05 0.8 474.47-0.65 471.9-2.1 470.55-4.75L470.55-4.75 473.6-6.25Q475.45-2.3 480.85-2.3L480.85-2.3Q483.45-2.3 485.15-3.25 486.85-4.2 486.85-6.2L486.85-6.2Q486.85-8.25 485.47-9.25 484.1-10.25 480.65-10.55L480.65-10.55Q475.85-10.95 473.77-12.7 471.7-14.45 471.7-17.35L471.7-17.35Q471.7-20.6 474.05-22.4 476.4-24.2 480.5-24.2L480.5-24.2Q487.45-24.2 489.95-18.7L489.95-18.7 486.9-17.2Q486.05-19.2 484.42-20.15 482.8-21.1 480.25-21.1L480.25-21.1Q477.65-21.1 476.27-20.15 474.9-19.2 474.9-17.45L474.9-17.45Q474.9-15.8 476.37-14.78 477.85-13.75 481.45-13.45L481.45-13.45Q485.9-13.05 488.07-11.28 490.25-9.5 490.25-6.6L490.25-6.6Q490.25-4.25 488.9-2.58 487.55-0.9 485.3-0.05 483.05 0.8 480.45 0.8L480.45 0.8ZM500.64 0L497.25 0 497.25-23.4 500.64-23.4 500.64 0ZM498.94-27.95Q497.8-27.95 497.02-28.75 496.25-29.55 496.25-30.7L496.25-30.7Q496.25-31.8 497.02-32.58 497.8-33.35 498.94-33.35L498.94-33.35Q500.05-33.35 500.85-32.58 501.64-31.8 501.64-30.65L501.64-30.65Q501.64-29.55 500.85-28.75 500.05-27.95 498.94-27.95L498.94-27.95ZM520.49-24.2Q523.84-24.2 526.47-22.6 529.09-21 530.57-18.18 532.04-15.35 532.04-11.75L532.04-11.75Q532.04-8.1 530.54-5.25 529.04-2.4 526.39-0.8 523.74 0.8 520.39 0.8L520.39 0.8Q517.89 0.8 515.79-0.33 513.69-1.45 512.24-3.45L512.24-3.45 512.24 0 508.84 0 508.84-36.3 512.24-36.3 512.24-19.9Q513.69-21.95 515.82-23.08 517.94-24.2 520.49-24.2L520.49-24.2ZM520.49-2.3Q522.84-2.3 524.69-3.5 526.54-4.7 527.59-6.85 528.64-9 528.64-11.75L528.64-11.75Q528.64-14.45 527.59-16.57 526.54-18.7 524.69-19.9 522.84-21.1 520.49-21.1L520.49-21.1Q518.09-21.1 516.22-19.9 514.34-18.7 513.29-16.55 512.24-14.4 512.24-11.7L512.24-11.7Q512.24-9 513.29-6.85 514.34-4.7 516.22-3.5 518.09-2.3 520.49-2.3L520.49-2.3ZM542.09 0L538.69 0 538.69-23.4 542.09-23.4 542.09 0ZM540.39-27.95Q539.24-27.95 538.46-28.75 537.69-29.55 537.69-30.7L537.69-30.7Q537.69-31.8 538.46-32.58 539.24-33.35 540.39-33.35L540.39-33.35Q541.49-33.35 542.29-32.58 543.09-31.8 543.09-30.65L543.09-30.65Q543.09-29.55 542.29-28.75 541.49-27.95 540.39-27.95L540.39-27.95ZM553.89 0L550.49 0 550.49-36.3 553.89-36.3 553.89 0ZM565.63 0L562.23 0 562.23-23.4 565.63-23.4 565.63 0ZM563.93-27.95Q562.78-27.95 562.01-28.75 561.23-29.55 561.23-30.7L561.23-30.7Q561.23-31.8 562.01-32.58 562.78-33.35 563.93-33.35L563.93-33.35Q565.03-33.35 565.83-32.58 566.63-31.8 566.63-30.65L566.63-30.65Q566.63-29.55 565.83-28.75 565.03-27.95 563.93-27.95L563.93-27.95ZM578.43 0L575.03 0 575.03-20.3 571.03-20.3 571.03-23.4 575.03-23.4 575.03-31.15 578.43-31.15 578.43-23.4 583.83-23.4 583.83-20.3 578.43-20.3 578.43 0ZM592.78 0L589.38 0 589.38-23.4 592.78-23.4 592.78 0ZM591.08-27.95Q589.93-27.95 589.15-28.75 588.38-29.55 588.38-30.7L588.38-30.7Q588.38-31.8 589.15-32.58 589.93-33.35 591.08-33.35L591.08-33.35Q592.18-33.35 592.98-32.58 593.78-31.8 593.78-30.65L593.78-30.65Q593.78-29.55 592.98-28.75 592.18-27.95 591.08-27.95L591.08-27.95ZM611.03-24.2Q614.18-24.2 616.73-22.65 619.28-21.1 620.73-18.43 622.18-15.75 622.18-12.45L622.18-12.45Q622.18-11.5 622.13-11L622.13-11 602.88-11Q603.08-7.4 605.23-4.85 607.38-2.3 611.08-2.3L611.08-2.3Q614.08-2.3 616.05-3.43 618.03-4.55 619.23-6.55L619.23-6.55 621.93-4.75Q620.28-2.15 617.58-0.68 614.88 0.8 611.18 0.8L611.18 0.8Q607.78 0.8 605.13-0.8 602.48-2.4 600.98-5.25 599.48-8.1 599.48-11.7L599.48-11.7Q599.48-15.3 600.95-18.15 602.43-21 605.05-22.6 607.68-24.2 611.03-24.2L611.03-24.2ZM603.08-13.8L618.78-13.8Q618.28-17.45 616.33-19.28 614.38-21.1 611.03-21.1L611.03-21.1Q607.78-21.1 605.7-19.03 603.63-16.95 603.08-13.8L603.08-13.8ZM635.42 0.8Q632.02 0.8 629.45-0.65 626.87-2.1 625.52-4.75L625.52-4.75 628.57-6.25Q630.42-2.3 635.82-2.3L635.82-2.3Q638.42-2.3 640.12-3.25 641.82-4.2 641.82-6.2L641.82-6.2Q641.82-8.25 640.45-9.25 639.07-10.25 635.62-10.55L635.62-10.55Q630.82-10.95 628.75-12.7 626.67-14.45 626.67-17.35L626.67-17.35Q626.67-20.6 629.02-22.4 631.37-24.2 635.47-24.2L635.47-24.2Q642.42-24.2 644.92-18.7L644.92-18.7 641.87-17.2Q641.02-19.2 639.4-20.15 637.77-21.1 635.22-21.1L635.22-21.1Q632.62-21.1 631.25-20.15 629.87-19.2 629.87-17.45L629.87-17.45Q629.87-15.8 631.35-14.78 632.82-13.75 636.42-13.45L636.42-13.45Q640.87-13.05 643.05-11.28 645.22-9.5 645.22-6.6L645.22-6.6Q645.22-4.25 643.87-2.58 642.52-0.9 640.27-0.05 638.02 0.8 635.42 0.8L635.42 0.8ZM652.27 0.4Q651.17 0.4 650.4-0.4 649.62-1.2 649.62-2.35L649.62-2.35Q649.62-3.45 650.4-4.25 651.17-5.05 652.27-5.05L652.27-5.05Q653.42-5.05 654.22-4.25 655.02-3.45 655.02-2.3L655.02-2.3Q655.02-1.2 654.22-0.4 653.42 0.4 652.27 0.4L652.27 0.4ZM662.77-22.7L660.37-22.7 659.87-34.1 663.27-34.1 662.77-22.7ZM668.77-22.7L666.37-22.7 665.87-34.1 669.27-34.1 668.77-22.7Z" opacity="1" transform="matrix(1,0,0,1,0,0)" fill="#e1410d" class="slogan-text-1" data-fill-palette-color="secondary" id="text-1"></path></svg></g></svg></g></svg></g></svg></g><g></g></svg></g><defs></defs></svg><rect width="253.94417663764256" height="280" fill="none" stroke="none" visibility="hidden"></rect></g></svg></g></svg>